<?xml version="1.0" encoding="utf-8"?>
<!-- Generator: Adobe Illustrator 24.0.1, SVG Export Plug-In . SVG Version: 6.00 Build 0)  -->
<svg version="1.1" id="Layer_1" xmlns="http://www.w3.org/2000/svg" xmlns:xlink="http://www.w3.org/1999/xlink" x="0px" y="0px"
	 viewBox="0 0 644.9 191.9" style="enable-background:new 0 0 644.9 191.9;" xml:space="preserve">
<style type="text/css">
	.st0{fill:#6931A3;}
</style>
<g>
	<g>
		<path d="M199.1,35.1c9.5,0,16.5,2,20.9,6.1s6.6,9.7,6.6,16.9c0,3.2-0.5,6.3-1.5,9.3s-2.6,5.6-4.8,7.9s-5.1,4.1-8.8,5.4
			s-8.2,2-13.6,2h-6.7V109h-15.7V35.1H199.1z M198.3,47.9h-7.1v21.9h5.2c2.9,0,5.5-0.4,7.6-1.2c2.2-0.8,3.8-2,5-3.6
			c1.2-1.7,1.8-3.8,1.8-6.4c0-3.6-1-6.3-3-8.1C205.7,48.8,202.5,47.9,198.3,47.9z"/>
		<path d="M270.8,51.4c0.8,0,1.7,0,2.7,0.1s1.9,0.2,2.5,0.3l-1.2,14.5c-0.5-0.2-1.2-0.3-2.1-0.4s-1.7-0.1-2.4-0.1
			c-2,0-3.9,0.3-5.8,0.8s-3.5,1.3-5,2.5c-1.5,1.1-2.7,2.6-3.5,4.5c-0.9,1.8-1.3,4.1-1.3,6.8V109h-15.4V52.4H251l2.3,9.5h0.8
			c1.1-1.9,2.5-3.7,4.2-5.3s3.6-2.9,5.7-3.8C266,51.9,268.3,51.4,270.8,51.4z"/>
		<path d="M309.5,51.3c7.6,0,13.4,1.7,17.4,5s6.1,8.3,6.1,15.1V109h-10.8l-3-7.7h-0.4c-1.6,2-3.3,3.7-5,5s-3.6,2.2-5.8,2.8
			c-2.2,0.6-4.9,0.9-8,0.9c-3.3,0-6.3-0.6-9-1.9c-2.6-1.3-4.7-3.2-6.2-5.9c-1.5-2.6-2.3-6-2.3-10.1c0-6,2.1-10.4,6.3-13.3
			c4.2-2.8,10.5-4.4,19-4.7l9.8-0.3v-2.5c0-3-0.8-5.1-2.3-6.5c-1.6-1.4-3.7-2.1-6.5-2.1c-2.7,0-5.4,0.4-8,1.2s-5.3,1.8-7.9,2.9
			l-5.1-10.4c3-1.6,6.4-2.8,10.1-3.7C301.6,51.7,305.5,51.3,309.5,51.3z M317.7,82.8l-6,0.2c-5,0.1-8.5,1-10.4,2.7s-2.9,3.8-2.9,6.5
			c0,2.4,0.7,4,2.1,5s3.2,1.5,5.4,1.5c3.3,0,6.1-1,8.4-2.9c2.3-2,3.4-4.7,3.4-8.3V82.8z"/>
		<path d="M372.7,97.7c1.7,0,3.3-0.2,4.9-0.5s3.2-0.8,4.8-1.3v11.5c-1.7,0.7-3.7,1.4-6.1,1.8c-2.4,0.5-5.1,0.7-8,0.7
			c-3.4,0-6.4-0.5-9.1-1.6s-4.8-3-6.3-5.7s-2.3-6.5-2.3-11.4V64h-7.4v-6.5l8.5-5.2l4.4-11.9h9.9v12h15.8V64H366v27.3
			c0,2.2,0.6,3.8,1.8,4.8C369,97.2,370.7,97.7,372.7,97.7z"/>
		<path d="M409.2,30.3v16c0,2.8-0.1,5.5-0.3,8c-0.2,2.5-0.3,4.3-0.4,5.4h0.8c1.2-2,2.7-3.5,4.3-4.8c1.7-1.2,3.5-2.1,5.5-2.7
			c2-0.6,4.2-0.9,6.5-0.9c4.1,0,7.6,0.7,10.7,2.1c3,1.4,5.4,3.7,7.1,6.7c1.7,3.1,2.5,7,2.5,11.9v37h-15.4V76c0-4-0.7-7.1-2.2-9.2
			s-3.8-3.1-6.9-3.1s-5.5,0.7-7.3,2.1s-3.1,3.5-3.8,6.3c-0.7,2.8-1.1,6.2-1.1,10.2V109h-15.4V30.3H409.2z"/>
		<path d="M485,51.3c7.6,0,13.4,1.7,17.4,5s6.1,8.3,6.1,15.1V109h-10.8l-3-7.7h-0.4c-1.6,2-3.3,3.7-5,5s-3.6,2.2-5.8,2.8
			c-2.2,0.6-4.9,0.9-8,0.9c-3.3,0-6.3-0.6-9-1.9c-2.6-1.3-4.7-3.2-6.2-5.9c-1.5-2.6-2.3-6-2.3-10.1c0-6,2.1-10.4,6.3-13.3
			c4.2-2.8,10.5-4.4,19-4.7l9.8-0.3v-2.5c0-3-0.8-5.1-2.3-6.5c-1.6-1.4-3.7-2.1-6.5-2.1c-2.7,0-5.4,0.4-8,1.2s-5.3,1.8-7.9,2.9
			l-5.1-10.4c3-1.6,6.4-2.8,10.1-3.7C477.2,51.7,481.1,51.3,485,51.3z M493.2,82.8l-6,0.2c-5,0.1-8.5,1-10.4,2.7s-2.9,3.8-2.9,6.5
			c0,2.4,0.7,4,2.1,5s3.2,1.5,5.4,1.5c3.3,0,6.1-1,8.4-2.9c2.3-2,3.4-4.7,3.4-8.3V82.8z"/>
		<path d="M590.8,51.4c6.4,0,11.3,1.6,14.5,4.9c3.3,3.3,4.9,8.6,4.9,15.8V109h-15.5V76c0-4-0.7-7.1-2.1-9.2
			c-1.4-2.1-3.5-3.1-6.4-3.1c-4.1,0-7,1.5-8.7,4.4s-2.6,7.1-2.6,12.5V109h-15.4V76c0-2.7-0.3-5-0.9-6.8s-1.5-3.2-2.8-4.1
			c-1.2-0.9-2.8-1.4-4.8-1.4c-2.9,0-5.1,0.7-6.8,2.1c-1.6,1.4-2.8,3.5-3.5,6.3s-1,6.2-1,10.2V109h-15.4V52.4h11.8l2.1,7.2h0.9
			c1.1-2,2.6-3.5,4.3-4.8c1.7-1.2,3.6-2.1,5.7-2.7c2.1-0.6,4.2-0.9,6.4-0.9c4.1,0,7.7,0.7,10.5,2c2.9,1.3,5.1,3.4,6.6,6.3h1.4
			c1.7-2.9,4.1-5,7.2-6.3C584.4,52,587.6,51.4,590.8,51.4z"/>
	</g>
</g>
<g>
	<g>
		<path d="M177.3,127.5h13.5c5.9,0,10.3,0.9,13.3,2.6c3,1.7,4.5,4.7,4.5,8.9c0,1.8-0.3,3.4-1,4.8c-0.7,1.4-1.6,2.6-2.9,3.5
			c-1.2,0.9-2.8,1.6-4.6,1.9v0.3c1.9,0.3,3.6,0.9,5.1,1.7s2.6,2,3.5,3.5s1.3,3.5,1.3,5.8c0,2.8-0.7,5.2-2,7.2s-3.2,3.5-5.7,4.5
			c-2.4,1-5.3,1.5-8.7,1.5h-16.3L177.3,127.5L177.3,127.5z M183.8,147h8.1c3.7,0,6.3-0.6,7.8-1.8c1.4-1.2,2.2-3,2.2-5.4
			s-0.9-4.2-2.6-5.3c-1.7-1.1-4.4-1.6-8.2-1.6h-7.3V147z M183.8,152.4v16h8.9c3.8,0,6.5-0.8,8.1-2.3s2.4-3.5,2.4-6.1
			c0-1.6-0.4-3-1.1-4.1c-0.7-1.2-1.9-2-3.4-2.6c-1.6-0.6-3.7-0.9-6.4-0.9L183.8,152.4L183.8,152.4z"/>
		<path d="M248.6,138.9v35h-5.1l-0.9-4.8h-0.3c-0.7,1.2-1.7,2.2-2.8,3s-2.4,1.4-3.8,1.8c-1.4,0.4-2.9,0.6-4.5,0.6
			c-2.7,0-5-0.4-6.8-1.3c-1.9-0.9-3.3-2.3-4.3-4.1c-1-1.9-1.4-4.3-1.4-7.3v-22.9h6.4v22c0,2.8,0.6,4.9,1.8,6.3s3.1,2.1,5.6,2.1
			c2.4,0,4.4-0.5,5.8-1.4c1.4-1,2.5-2.4,3.1-4.2c0.6-1.9,0.9-4.1,0.9-6.8V139h6.3V138.9z"/>
		<path d="M282.6,164.1c0,2.3-0.6,4.2-1.7,5.7c-1.1,1.6-2.7,2.7-4.8,3.5c-2.1,0.8-4.7,1.2-7.6,1.2c-2.5,0-4.6-0.2-6.3-0.6
			s-3.4-0.9-4.8-1.6v-5.6c1.5,0.7,3.3,1.4,5.4,2s4,0.9,6,0.9c2.7,0,4.7-0.4,5.9-1.3c1.2-0.9,1.8-2,1.8-3.5c0-0.9-0.2-1.6-0.7-2.3
			s-1.3-1.3-2.6-2c-1.2-0.7-3-1.4-5.2-2.3c-2.2-0.9-4.1-1.7-5.7-2.6c-1.6-0.9-2.8-1.9-3.6-3.1c-0.8-1.2-1.2-2.8-1.2-4.8
			c0-3,1.2-5.3,3.6-6.9s5.6-2.4,9.6-2.4c2.1,0,4.1,0.2,6,0.6c1.9,0.4,3.7,1,5.4,1.8l-2.1,4.9c-1.5-0.7-3.1-1.2-4.7-1.6
			c-1.6-0.4-3.2-0.7-4.9-0.7c-2.2,0-3.8,0.3-5,1s-1.7,1.7-1.7,2.9c0,1,0.3,1.7,0.8,2.4c0.5,0.6,1.4,1.3,2.7,1.9
			c1.3,0.6,3,1.3,5.1,2.1s4,1.6,5.5,2.5c1.6,0.9,2.8,1.9,3.6,3.2C282.2,160.6,282.6,162.2,282.6,164.1z"/>
		<path d="M294.1,125.7c1,0,1.9,0.3,2.6,0.9s1.1,1.6,1.1,2.9s-0.4,2.3-1.1,2.9c-0.7,0.6-1.6,0.9-2.6,0.9s-1.9-0.3-2.6-0.9
			c-0.7-0.6-1.1-1.6-1.1-2.9s0.4-2.3,1.1-2.9S293,125.7,294.1,125.7z M297.2,138.9v35h-6.4v-35H297.2z"/>
		<path d="M325.5,138.3c4,0,7.1,1,9.3,3c2.2,2,3.3,5.3,3.3,9.8v22.8h-6.3V152c0-2.8-0.6-4.9-1.8-6.3c-1.2-1.4-3.1-2.1-5.6-2.1
			c-3.6,0-6.2,1.1-7.6,3.2c-1.4,2.1-2.2,5.2-2.2,9.3v17.8h-6.4v-35h5l0.9,4.9h0.3c0.7-1.2,1.7-2.3,2.8-3.1s2.4-1.4,3.8-1.9
			C322.5,138.5,323.9,138.3,325.5,138.3z"/>
		<path d="M362.4,138.3c3,0,5.7,0.7,7.8,2c2.2,1.3,3.9,3.1,5,5.5c1.2,2.4,1.7,5.2,1.7,8.4v3.6h-23.7c0.1,3.7,1,6.6,2.9,8.6
			s4.5,3,7.8,3c2.2,0,4.2-0.2,5.9-0.6c1.7-0.4,3.5-1,5.4-1.9v5.4c-1.8,0.8-3.5,1.4-5.3,1.8c-1.8,0.4-3.9,0.6-6.3,0.6
			c-3.4,0-6.4-0.7-8.9-2c-2.5-1.4-4.5-3.4-6-6c-1.4-2.7-2.1-5.9-2.1-9.8c0-3.9,0.6-7.1,1.9-9.9c1.3-2.7,3.1-4.8,5.5-6.3
			C356.5,139,359.2,138.3,362.4,138.3z M362.4,143.2c-2.6,0-4.7,0.8-6.2,2.5c-1.6,1.7-2.5,4.1-2.8,7.2h17.2c0-1.9-0.3-3.6-0.9-5.1
			s-1.5-2.6-2.7-3.4C365.8,143.7,364.3,143.2,362.4,143.2z"/>
		<path d="M408.7,164.1c0,2.3-0.6,4.2-1.7,5.7c-1.1,1.6-2.7,2.7-4.8,3.5c-2.1,0.8-4.7,1.2-7.6,1.2c-2.5,0-4.6-0.2-6.3-0.6
			s-3.4-0.9-4.8-1.6v-5.6c1.5,0.7,3.3,1.4,5.4,2s4,0.9,6,0.9c2.7,0,4.7-0.4,5.9-1.3c1.2-0.9,1.8-2,1.8-3.5c0-0.9-0.2-1.6-0.7-2.3
			s-1.3-1.3-2.6-2c-1.2-0.7-3-1.4-5.2-2.3c-2.2-0.9-4.1-1.7-5.7-2.6c-1.6-0.9-2.8-1.9-3.6-3.1c-0.8-1.2-1.2-2.8-1.2-4.8
			c0-3,1.2-5.3,3.6-6.9s5.6-2.4,9.6-2.4c2.1,0,4.1,0.2,6,0.6c1.9,0.4,3.7,1,5.4,1.8l-2.1,4.9c-1.5-0.7-3.1-1.2-4.7-1.6
			c-1.6-0.4-3.2-0.7-4.9-0.7c-2.2,0-3.8,0.3-5,1s-1.7,1.7-1.7,2.9c0,1,0.3,1.7,0.8,2.4c0.5,0.6,1.4,1.3,2.7,1.9
			c1.3,0.6,3,1.3,5.1,2.1s4,1.6,5.5,2.5c1.6,0.9,2.8,1.9,3.6,3.2C408.3,160.6,408.7,162.2,408.7,164.1z"/>
		<path d="M440.1,164.1c0,2.3-0.6,4.2-1.7,5.7c-1.1,1.6-2.7,2.7-4.8,3.5c-2.1,0.8-4.7,1.2-7.6,1.2c-2.5,0-4.6-0.2-6.3-0.6
			s-3.4-0.9-4.8-1.6v-5.6c1.5,0.7,3.3,1.4,5.4,2s4,0.9,6,0.9c2.7,0,4.7-0.4,5.9-1.3c1.2-0.9,1.8-2,1.8-3.5c0-0.9-0.2-1.6-0.7-2.3
			s-1.3-1.3-2.6-2c-1.2-0.7-3-1.4-5.2-2.3c-2.2-0.9-4.1-1.7-5.7-2.6c-1.6-0.9-2.8-1.9-3.6-3.1c-0.8-1.2-1.2-2.8-1.2-4.8
			c0-3,1.2-5.3,3.6-6.9s5.6-2.4,9.6-2.4c2.1,0,4.1,0.2,6,0.6c1.9,0.4,3.7,1,5.4,1.8l-2.1,4.9c-1.5-0.7-3.1-1.2-4.7-1.6
			c-1.6-0.4-3.2-0.7-4.9-0.7c-2.2,0-3.8,0.3-5,1s-1.7,1.7-1.7,2.9c0,1,0.3,1.7,0.8,2.4c0.5,0.6,1.4,1.3,2.7,1.9
			c1.3,0.6,3,1.3,5.1,2.1s4,1.6,5.5,2.5c1.6,0.9,2.8,1.9,3.6,3.2C439.6,160.6,440.1,162.2,440.1,164.1z"/>
		<path d="M492.5,161.4c0,2.8-0.7,5.1-2,7.1c-1.4,2-3.3,3.5-5.8,4.5s-5.4,1.6-8.8,1.6c-1.7,0-3.3-0.1-4.9-0.3s-3-0.4-4.3-0.8
			c-1.3-0.3-2.5-0.8-3.6-1.3V166c1.8,0.7,3.8,1.4,6.1,2c2.3,0.6,4.7,0.9,7.1,0.9c2.1,0,3.9-0.3,5.4-0.9c1.4-0.6,2.5-1.4,3.3-2.5
			c0.7-1.1,1.1-2.3,1.1-3.8s-0.4-2.7-1.1-3.7s-1.9-1.9-3.4-2.8c-1.6-0.8-3.6-1.7-6.1-2.7c-1.8-0.6-3.4-1.4-4.8-2.2s-2.7-1.8-3.7-2.8
			c-1-1.1-1.9-2.3-2.4-3.7c-0.6-1.4-0.9-3.1-0.9-4.9c0-2.6,0.6-4.7,1.9-6.6c1.3-1.8,3-3.2,5.3-4.2s4.9-1.4,7.9-1.4
			c2.5,0,4.7,0.2,6.9,0.7c2.1,0.5,4.2,1.2,6.1,2l-2.1,5.4c-1.8-0.7-3.6-1.3-5.4-1.8s-3.7-0.7-5.7-0.7c-1.8,0-3.3,0.3-4.6,0.8
			c-1.2,0.5-2.2,1.3-2.8,2.3c-0.6,1-1,2.1-1,3.5c0,1.5,0.3,2.8,1,3.7c0.7,1,1.7,1.9,3.2,2.7s3.4,1.7,5.7,2.6c2.6,1,4.9,2.1,6.7,3.2
			c1.9,1.1,3.3,2.5,4.2,4.1C492,156.9,492.5,159,492.5,161.4z"/>
		<path d="M530.6,138.9v35h-5.1l-0.9-4.8h-0.3c-0.7,1.2-1.7,2.2-2.8,3s-2.4,1.4-3.8,1.8c-1.4,0.4-2.9,0.6-4.5,0.6
			c-2.7,0-5-0.4-6.8-1.3c-1.9-0.9-3.3-2.3-4.3-4.1c-1-1.9-1.4-4.3-1.4-7.3v-22.9h6.4v22c0,2.8,0.6,4.9,1.8,6.3s3.1,2.1,5.6,2.1
			c2.4,0,4.4-0.5,5.8-1.4c1.4-1,2.5-2.4,3.1-4.2c0.6-1.9,0.9-4.1,0.9-6.8V139h6.3V138.9z"/>
		<path d="M544.7,125.7c1,0,1.9,0.3,2.6,0.9c0.7,0.6,1.1,1.6,1.1,2.9s-0.4,2.3-1.1,2.9c-0.7,0.6-1.6,0.9-2.6,0.9s-1.9-0.3-2.6-0.9
			c-0.7-0.6-1.1-1.6-1.1-2.9s0.4-2.3,1.1-2.9S543.7,125.7,544.7,125.7z M547.8,138.9v35h-6.4v-35H547.8z"/>
		<path d="M570.9,169.4c0.9,0,1.8-0.1,2.8-0.2c0.9-0.2,1.7-0.4,2.4-0.6v4.9c-0.7,0.3-1.7,0.6-2.9,0.8s-2.4,0.3-3.7,0.3
			c-1.9,0-3.6-0.3-5.2-1c-1.5-0.7-2.8-1.8-3.7-3.4c-0.9-1.6-1.4-3.8-1.4-6.6v-19.7h-4.9v-3l5.1-2.3l2.3-7.6h3.9v7.9h10.1v4.9h-10.1
			v19.6c0,2,0.5,3.4,1.4,4.4C568.1,168.9,569.3,169.4,570.9,169.4z"/>
		<path d="M596.9,138.3c3,0,5.7,0.7,7.8,2c2.2,1.3,3.9,3.1,5,5.5c1.2,2.4,1.7,5.2,1.7,8.4v3.6h-23.7c0.1,3.7,1,6.6,2.9,8.6
			s4.5,3,7.8,3c2.2,0,4.2-0.2,5.9-0.6c1.7-0.4,3.5-1,5.4-1.9v5.4c-1.8,0.8-3.5,1.4-5.3,1.8c-1.8,0.4-3.9,0.6-6.3,0.6
			c-3.4,0-6.4-0.7-8.9-2c-2.5-1.4-4.5-3.4-6-6c-1.4-2.7-2.1-5.9-2.1-9.8c0-3.9,0.6-7.1,1.9-9.9c1.3-2.7,3.1-4.8,5.5-6.3
			C590.9,139,593.7,138.3,596.9,138.3z M596.9,143.2c-2.6,0-4.7,0.8-6.2,2.5c-1.6,1.7-2.5,4.1-2.8,7.2h17.2c0-1.9-0.3-3.6-0.9-5.1
			c-0.6-1.5-1.5-2.6-2.7-3.4C600.3,143.7,598.7,143.2,596.9,143.2z"/>
	</g>
</g>
<g>
	<path class="st0" d="M133.2,0"/>
</g>
<g>
	<path d="M94.8,25.8c-0.1-0.5-0.7-0.8-1.2-0.7c-3.3,0.8-6.7,1.9-10,3.3c-9.5,4.1-18.8,9.1-27.9,14.7c-12.2,7.5-24,16-35.3,24.5
		c-1.3,1-2.7,2-4.2,3c-2.7,1.9-5.4,3.8-7.8,5.9c-2.6,2.3-4.8,4.9-6.4,8.1c-4.4,9.3-0.4,19.6,2.4,24.9c1,1.9,2.1,3.8,3.4,5.7
		c0.2,0.3,0.5,0.4,0.8,0.4c0.2,0,0.4-0.1,0.5-0.2c0.4-0.3,0.6-0.9,0.3-1.4c-1.2-1.8-2.3-3.7-3.3-5.5c-2.6-5-6.5-14.6-2.4-23.2
		c1.2-2.4,2.8-4.5,4.8-6.4c2.6-2.6,5.7-4.7,8.8-6.8c1.4-1,2.9-2,4.3-3c12.7-9.6,26.1-19.2,40-27.4c7.4-4.4,15-8.3,22.7-11.6
		c3.2-1.4,6.5-2.5,9.7-3.2C94.6,26.9,94.9,26.3,94.8,25.8z M131.4,38.1c-1.2-2.1-2.6-4-4.4-5.8c-1.5-1.6-3.2-2.9-5-4.1
		c-6.9-4.3-15.8-5.6-25.9-3.7c-0.5,0.1-0.9,0.6-0.8,1.1s0.6,0.9,1.1,0.8c6.7-1.3,16.3-1.7,24.5,3.4c1.7,1.1,3.3,2.3,4.7,3.8
		c1.1,1.1,2.1,2.3,2.9,3.6c8.2,11.9,5.8,29.1,4,41.9c-0.8,5.6-1.4,11.4-2.1,16.9c-0.7,6.2-1.4,12.6-2.3,18.8
		c-0.5,3.5-1.1,7-1.7,10.7c-1.7,9.3-4.1,18.8-8.1,26.8c-0.2,0.5,0,1.1,0.4,1.3c0.1,0.1,0.3,0.1,0.4,0.1c0.4,0,0.7-0.2,0.9-0.5
		c5-9.8,7.4-21.7,9.2-32.6c0.3-1.8,0.6-3.7,0.8-5.4c0.9-6.3,1.6-12.7,2.3-18.9c0.6-5.5,1.3-11.3,2.1-16.9
		C136.3,66.9,138.6,50.4,131.4,38.1z M117.1,156.7c-0.5-0.3-1.1-0.2-1.4,0.3c-1.1,1.7-2.3,3.3-3.5,4.7c-4,4.5-9.2,7.1-14.9,8.3
		c-0.2,0.7-0.4,1.4-0.7,2.1c6.4-1.2,12.5-4.1,17.1-9.2c1.3-1.5,2.6-3.1,3.7-4.9C117.7,157.6,117.6,157,117.1,156.7z M71.9,167.4
		c-12.7-5.3-23.4-14.9-33.8-24.3c-2-1.8-3.9-3.5-5.9-5.2c-0.5-0.4-0.9-0.8-1.4-1.2c-5.6-5-11.8-10.5-17-16.7c-0.3-0.4-1-0.5-1.4-0.1
		c-0.4,0.3-0.5,1-0.1,1.4c5.6,6.7,12.5,12.7,18.5,18c0.8,0.7,1.7,1.5,2.5,2.2c1.1,1,2.2,2,3.3,3C47.1,154,58,163.8,71,169.2
		c3.8,1.6,8,2.7,12.5,3.2l0,0c0.1-0.2,0.2-0.4,0.3-0.5c0.3-0.5,0.6-0.9,0.8-1.3C80.2,170.1,75.7,169,71.9,167.4z"/>
	<path d="M151.7,55.7c-0.8-2-1.8-3.9-3-5.6c-4.1-5.9-10.4-9.8-17.3-12c-0.9-0.3-1.9-0.6-2.8-0.8c-4.9-1.3-10.1-1.8-15-1.8
		c-17.1,0-34.8,2.8-52,6.4c-2,0.4-4,0.8-5.9,1.3c-5.5,1.2-11,2.5-16.4,3.9c-7.9,2-17.1,2.7-23.5,8.4C9.9,60.7,8.1,69,8.4,76.7
		c0,0.8,0.1,1.5,0.1,2.2v0.3c1.2,13.3,7.1,25.6,12.8,37.6c3.1,6.5,6.1,13.3,9.5,19.9c0.8,1.7,1.7,3.3,2.6,4.9c1.1,1,2.2,2,3.3,3
		c10.5,9.5,21.4,19.3,34.4,24.7c3.8,1.6,8,2.7,12.5,3.2l0,0c0.1-0.2,0.2-0.4,0.3-0.5c0.3-0.5,0.6-0.9,0.8-1.3
		c0.3-0.6,0.6-1.1,0.9-1.6c0.6-1.4,1-2.9,1-4.5c0-0.9-0.1-1.8-0.3-2.7c-0.2-0.9-0.6-1.9-1.3-3.1c-0.7-1.2-1.7-2.5-3-4.1
		s-3.2-3.5-5.5-5.8s-5.2-5.1-8.7-8.2c-3.5-3.2-7.6-6.9-12.6-11.3c5.7-5.7,10.3-10.6,14-14.9s6.6-8.1,8.7-11.5s3.6-6.5,4.5-9.3
		c0.8-2.8,1.3-5.6,1.3-8.4c0-2.7-0.3-5-0.9-6.8s-1.5-3.3-2.5-4.5c-1-1.1-2.2-1.9-3.5-2.4s-2.6-0.7-4-0.7c-1.6,0-3,0.3-4.4,0.9
		c-1.3,0.6-2.5,1.4-3.5,2.4s-1.7,2.3-2.3,3.7c-0.6,1.4-0.8,3-0.8,4.7c0,1.8,0.3,3.5,0.9,5.1c0.6,1.6,1.4,3.1,2.4,4.5
		s2.1,2.6,3.3,3.8c1.3,1.1,2.6,2.1,3.9,3l-5.9,8.3c-2.2-1.4-4.3-2.9-6.2-4.6s-3.6-3.5-5-5.6s-2.6-4.3-3.4-6.8
		c-0.8-2.4-1.3-5.1-1.3-8c0-3.4,0.6-6.5,1.7-9.2c1.2-2.8,2.7-5.1,4.7-7s4.3-3.4,7-4.4c2.6-1,5.4-1.6,8.4-1.6s5.8,0.5,8.6,1.6
		c2.8,1.1,5.2,2.7,7.3,4.8c2.1,2.1,3.8,4.7,5.1,7.8c1.3,3.1,1.9,6.6,1.9,10.5c0,4.1-0.7,8.1-2.1,11.9s-3.2,7.5-5.6,11.2
		c-2.3,3.6-5,7.2-8,10.7s-6.2,7.1-9.5,10.6c5.2,4.6,9.7,8.6,13.2,12c3.6,3.4,6.5,6.5,8.7,9.3c2.2,2.7,3.8,5.3,4.8,7.5
		c0.9,2.2,1.4,4.3,1.5,6.5c9.8-8.5,17.7-21,23.7-30.9c1.6-2.6,3.1-5.2,4.7-7.9c0.9-1.6,1.9-3.3,2.8-4.9c3.6-6.3,7.1-12.6,10.8-18.8
		C148.1,88.5,158,71.6,151.7,55.7z"/>
	<path d="M83.6,172.4l-0.2,0.4c-13,3.4-27.5-3.3-36.5-12.5c-5.4-5.5-9.7-11.9-13.4-18.8c1.1,1,2.2,2,3.3,3
		c10.5,9.5,21.4,19.3,34.4,24.7C74.9,170.7,79.1,171.9,83.6,172.4z"/>
</g>
<g>
	<path class="st0" d="M130.1,0.4"/>
</g>
<path class="st0" d="M140.3,145.1c-0.2,0.3-0.4,0.6-0.6,0.9l0,0L140.3,145.1L140.3,145.1z"/>
<path class="st0" d="M119.9,144.7c-0.2,0.3-0.4,0.6-0.6,0.9l0,0L119.9,144.7L119.9,144.7z"/>
</svg>
